<svg width="37" height="39" viewBox="0 0 37 39" fill="none" xmlns="http://www.w3.org/2000/svg">
<path d="M18.0893 6.9375C15.4774 7.67285 12.7688 8.00591 10.0566 7.92522V16.898C10.1046 17.9144 10.347 18.9121 10.7707 19.8373C12.3058 23.1336 16.1733 24.6093 18.0893 25.1567C20.0052 24.6093 23.8728 23.1336 25.4079 19.8373C25.8342 18.8879 26.0765 17.8663 26.1219 16.8266V7.92522C23.4099 8.00213 20.7018 7.66914 18.0893 6.9375ZM23.6466 12.8638L18.4225 18.3617C18.2993 18.494 18.1501 18.5993 17.9842 18.671C17.8183 18.7427 17.6393 18.7792 17.4586 18.7782H17.4348C17.2501 18.7787 17.0675 18.7397 16.8991 18.6637C16.7308 18.5878 16.5807 18.4767 16.4589 18.3379L13.8528 15.4461C13.7346 15.3169 13.6432 15.1655 13.584 15.0007C13.5247 14.8359 13.4988 14.661 13.5076 14.4861C13.5165 14.3112 13.56 14.1398 13.6356 13.9819C13.7112 13.8239 13.8174 13.6825 13.948 13.5659C14.0784 13.4477 14.2308 13.3564 14.3965 13.2972C14.5623 13.238 14.7381 13.212 14.9138 13.2209C15.0896 13.2297 15.2619 13.2732 15.4208 13.3487C15.5798 13.4242 15.7223 13.5304 15.8401 13.6611L17.4824 15.4699L21.7069 11.0193C21.8276 10.8901 21.9726 10.7861 22.1337 10.7133C22.2948 10.6405 22.4687 10.6003 22.6454 10.5951C22.8221 10.5898 22.998 10.6197 23.1631 10.6828C23.3282 10.746 23.4792 10.8412 23.6073 10.963C23.7354 11.0848 23.8381 11.2308 23.9095 11.3925C23.9808 11.5542 24.0195 11.7285 24.0231 11.9052C24.0268 12.0819 23.9954 12.2576 23.9308 12.4221C23.8662 12.5867 23.7696 12.7368 23.6466 12.8638Z" fill="#8E8E8E"/>
<path d="M31.8574 0.715373C31.6998 0.605335 31.518 0.534902 31.3274 0.510044C31.1368 0.485185 30.9431 0.506633 30.7625 0.57257C28.9807 1.25063 27.0987 1.62862 25.1932 1.69119C22.9118 1.76581 20.6383 1.38555 18.5053 0.57257C18.2359 0.477289 17.9418 0.477289 17.6723 0.57257C15.5399 1.38745 13.266 1.76777 10.9844 1.69119C9.07895 1.62862 7.19701 1.25063 5.41515 0.57257C5.23455 0.507011 5.04086 0.485763 4.85035 0.510612C4.65983 0.535462 4.47807 0.605683 4.32033 0.715373C4.16148 0.823509 4.03169 0.969101 3.94245 1.13929C3.8532 1.30948 3.80724 1.49902 3.80862 1.69119V16.9591C3.88068 18.847 4.32133 20.7026 5.10574 22.4213C8.33069 29.3591 16.3038 31.1322 17.8746 31.4178C18.0157 31.4497 18.162 31.4497 18.303 31.4178C19.8739 31.1322 27.847 29.3591 31.0719 22.4213C31.8618 20.6876 32.3025 18.8154 32.3691 16.9115V1.69131C32.3705 1.49912 32.3245 1.30955 32.2353 1.13934C32.146 0.969131 32.0162 0.82352 31.8574 0.715373ZM28.799 16.8996C28.7425 18.3056 28.4153 19.6875 27.8351 20.9695C25.7169 25.5035 20.5522 27.2885 18.422 27.8359C18.2045 27.8995 17.9732 27.8995 17.7556 27.8359C15.6255 27.2885 10.4489 25.5035 8.34259 20.9695C7.76508 19.7118 7.4377 18.3537 7.37868 16.971V6.52266C7.37984 6.33877 7.41872 6.15707 7.49289 5.9888C7.56706 5.82052 7.67496 5.66925 7.80992 5.54433C7.94488 5.41941 8.10402 5.3235 8.27752 5.26253C8.45101 5.20156 8.63517 5.17682 8.8186 5.18984C9.18751 5.21364 9.55641 5.23744 9.92532 5.24934C12.5556 5.33749 15.1831 5.00403 17.708 4.26163C17.9569 4.19021 18.2208 4.19021 18.4696 4.26163C20.9941 5.00626 23.6219 5.33977 26.2524 5.24934C26.6213 5.23744 26.9902 5.21364 27.3591 5.18984C27.5425 5.17682 27.7267 5.20156 27.9002 5.26254C28.0737 5.32352 28.2328 5.41944 28.3678 5.54437C28.5028 5.6693 28.6107 5.82059 28.6848 5.98888C28.759 6.15717 28.7979 6.33888 28.799 6.52278V16.8996Z" fill="#8E8E8E"/>
<path d="M12.223 32.1083L7.927 38.0107C7.81622 38.1623 7.67113 38.2856 7.5036 38.3704C7.33607 38.4552 7.15085 38.4991 6.96308 38.4986C6.90728 38.5006 6.85143 38.4966 6.79648 38.4867C6.58449 38.4557 6.38459 38.3688 6.21728 38.2349C6.04998 38.1011 5.92131 37.9251 5.84447 37.7251L4.63065 34.4407L1.14389 34.2979C0.927719 34.2887 0.718152 34.2207 0.537799 34.1011C0.357445 33.9816 0.213151 33.8151 0.120479 33.6196C0.0257637 33.4268 -0.0143293 33.2117 0.00455171 32.9977C0.0234328 32.7837 0.100567 32.579 0.227581 32.4058L4.67825 26.2891C6.66651 28.8296 9.26068 30.8305 12.223 32.1083Z" fill="#8E8E8E"/>
<path d="M36.0595 33.6196C35.9668 33.8151 35.8225 33.9816 35.6422 34.1011C35.4618 34.2207 35.2523 34.2887 35.0361 34.2979L31.5493 34.4407L30.3355 37.7251C30.2587 37.9251 30.13 38.1011 29.9627 38.2349C29.7954 38.3688 29.5955 38.4557 29.3835 38.4867C29.3285 38.4962 29.2727 38.5002 29.2169 38.4986C29.0291 38.4991 28.8439 38.4552 28.6764 38.3704C28.5089 38.2856 28.3638 38.1623 28.253 38.0107L23.957 32.1083C26.9193 30.8305 29.5135 28.8296 31.5017 26.2891L35.9524 32.4058C36.0794 32.579 36.1566 32.7837 36.1754 32.9977C36.1943 33.2117 36.1542 33.4268 36.0595 33.6196Z" fill="#8E8E8E"/>
</svg>
