<svg width="34" height="38" viewBox="0 0 34 38" fill="none" xmlns="http://www.w3.org/2000/svg">
<path d="M32.5607 18.1432L15.0218 0.564344C14.6223 0.164825 14.0629 -0.0349346 13.5036 0.00501736L2.87639 0.724152C1.8776 0.804056 1.11851 1.56314 1.03861 2.56194L0.31947 13.1892C0.279519 13.7485 0.479278 14.3078 0.878797 14.7073L3.27591 17.1044C5.31346 15.7461 7.75053 14.947 10.3474 14.947C17.339 14.947 23.0122 20.6202 23.0122 27.6118C23.0122 28.7305 22.8524 29.8092 22.5727 30.8479L32.5607 20.8999C33.3198 20.1408 33.3198 18.9023 32.5607 18.1432ZM8.78928 8.47483C7.87039 9.39372 6.39216 9.39372 5.47327 8.47483C4.55438 7.55593 4.55438 6.07771 5.47327 5.15882C6.39216 4.23992 7.87039 4.23992 8.78928 5.15882C9.70817 6.07771 9.70817 7.55593 8.78928 8.47483Z" fill="#8E8E8E"/>
<path d="M10.3875 17.2246C4.67438 17.2246 0 21.859 0 27.6121C0 33.3652 4.63442 37.9996 10.3875 37.9996C16.1406 37.9996 20.775 33.3652 20.775 27.6121C20.775 21.859 16.1006 17.2246 10.3875 17.2246ZM11.4662 33.2054V34.5637C11.4662 34.7236 11.3064 34.8834 11.1466 34.8834H9.62841C9.46861 34.8834 9.3088 34.7236 9.3088 34.5637V33.2054C7.71072 33.0855 6.39231 31.8071 6.2325 30.2489C6.19255 30.0492 6.35236 29.8894 6.55212 29.8894H8.07029C8.2301 29.8894 8.34995 30.0092 8.3899 30.1291C8.50976 30.6884 8.98918 31.0879 9.58846 31.0879H11.1865C11.9057 31.0879 12.465 30.4887 12.3851 29.7695C12.3052 29.1303 11.7459 28.6908 11.1066 28.6908H9.70832C7.99039 28.6908 6.43226 27.4523 6.2325 25.7344C5.99279 23.7767 7.43106 22.1387 9.3088 21.9789V20.5806C9.3088 20.4208 9.46861 20.261 9.62841 20.261H11.1466C11.3064 20.261 11.4662 20.4208 11.4662 20.5806V21.9389C13.0643 22.0588 14.3827 23.3373 14.5425 24.8954C14.5825 25.0951 14.4226 25.2549 14.2229 25.2549H12.7047C12.5449 25.2549 12.425 25.1351 12.3851 25.0152C12.2652 24.4559 11.7858 24.0564 11.1865 24.0564H9.66837C9.02914 24.0564 8.46981 24.4959 8.3899 25.1351C8.31 25.8542 8.86933 26.4935 9.58846 26.4935H11.0667C12.7846 26.4935 14.3427 27.732 14.5425 29.4499C14.7822 31.4075 13.3439 33.0855 11.4662 33.2054Z" fill="#8E8E8E"/>
</svg>
