<svg width="16" height="16" viewBox="0 0 16 16" fill="none" xmlns="http://www.w3.org/2000/svg">
<path d="M9.22632 13.7483C9.108 13.8657 8.94952 13.9307 8.78503 13.9292C8.62054 13.9278 8.46318 13.86 8.34686 13.7404C8.23054 13.6209 8.16456 13.4592 8.16314 13.2901C8.16171 13.1211 8.22494 12.9582 8.33922 12.8366L12.2873 8.77929H1.25432C1.08793 8.77929 0.928361 8.71136 0.810706 8.59045C0.693051 8.46954 0.626953 8.30555 0.626953 8.13455C0.626953 7.96356 0.693051 7.79957 0.810706 7.67866C0.928361 7.55774 1.08793 7.48982 1.25432 7.48982H12.2873L8.33922 3.43249C8.22494 3.31089 8.16171 3.14803 8.16314 2.97898C8.16456 2.80993 8.23054 2.64822 8.34686 2.52868C8.46318 2.40914 8.62054 2.34134 8.78503 2.33987C8.94952 2.3384 9.108 2.40338 9.22632 2.52083L14.2453 7.67872C14.3034 7.73875 14.3495 7.80995 14.3808 7.88826C14.4127 7.96624 14.4291 8.04997 14.4291 8.13455C14.4291 8.21913 14.4127 8.30287 14.3808 8.38084C14.3495 8.45916 14.3034 8.53036 14.2453 8.59038L9.22632 13.7483Z" fill="white"/>
</svg>
