<svg width="32" height="38" viewBox="0 0 32 38" fill="none" xmlns="http://www.w3.org/2000/svg">
<path d="M27.1217 4.60277C20.9826 -1.53426 11.0261 -1.53426 4.88696 4.60277C-1.25217 10.7398 -1.25217 20.6929 4.88696 26.8299C11.0261 32.9669 20.9826 32.9669 27.1217 26.8299C33.2609 20.6929 33.2609 10.7398 27.1217 4.60277ZM9.62609 31.2371C7.57391 30.3939 5.65217 29.1074 4.12174 27.5601L0 34.6968L3.65217 34.3578C3.87826 34.323 4.11304 34.436 4.21739 34.662L5.73043 37.9913L9.62609 31.2371ZM27.887 27.5601C26.3565 29.1161 24.4261 30.3939 22.3739 31.2371L26.2783 38L27.7913 34.6707C27.8957 34.4534 28.1304 34.3317 28.3565 34.3665L32 34.7055L27.887 27.5601ZM17.0609 7.71474C15.2522 5.90667 12.1478 7.19318 12.1478 9.74883C12.1478 12.3045 15.2522 13.591 17.0609 11.7829C18.1826 10.6616 18.1826 8.8361 17.0609 7.71474ZM24.2435 18.8501C22.2522 16.8594 19.0348 16.8594 17.0435 18.8501C15.0522 20.8407 15.0522 24.0657 17.0435 26.0476C19.0348 28.0382 22.2522 28.0382 24.2435 26.0476C26.2348 24.0657 26.2348 20.8407 24.2435 18.8501ZM26.7913 22.162C26.9565 25.6738 24.1565 28.6032 20.6522 28.6032C19.7826 28.6032 18.9478 28.4207 18.2 28.0904C17.8696 28.1425 17.5391 28.1947 17.1913 28.2294C9.79131 28.9162 3.44348 23.1182 3.44348 15.7294C3.44348 8.79263 9.06956 3.16848 16.0087 3.16848C24.3652 3.16848 30.3652 11.1657 28.0957 19.1543C27.7913 20.2148 27.3478 21.2232 26.7913 22.162ZM21.8348 16.4161C24.0087 16.842 25.7739 18.4067 26.4783 20.4843C28.4696 16.1206 27.5304 10.9658 24.1391 7.57566C19.6435 3.08155 12.3565 3.08155 7.86087 7.57566C3.36522 12.0698 3.36522 19.3542 7.86087 23.8396C10.1391 26.1171 13.313 27.3949 16.7391 27.1863C15.4 26.091 14.5565 24.4481 14.5043 22.6227H8.75652C8.46087 22.6227 8.22609 22.3793 8.22609 22.0924V16.3553C8.22609 14.4863 9.75652 12.9564 11.6261 12.9564H12.7739C10.7826 11.5569 10.5217 8.68832 12.2522 6.94979C13.7913 5.41119 16.2783 5.41119 17.8174 6.94979C19.5478 8.67963 19.2957 11.5482 17.2957 12.9564H18.4348C20.313 12.9651 21.8348 14.4863 21.8348 16.4161ZM20.6435 16.3031C20.687 16.3031 20.7304 16.3031 20.7739 16.3031C20.7478 15.0427 19.7043 14.0256 18.4348 14.0256H11.6174C10.3304 14.0256 9.27826 15.0774 9.27826 16.3639V21.5709H14.5565C14.9913 18.5719 17.5652 16.3031 20.6435 16.3031ZM17.687 22.4401C17.3391 21.8403 18.2609 21.3188 18.6 21.9186L19.4522 23.3876L22.4696 20.3713C22.9565 19.8845 23.713 20.6234 23.2174 21.1188L19.713 24.622C19.4696 24.8654 19.0609 24.8132 18.887 24.509L17.687 22.4401Z" fill="#8E8E8E"/>
</svg>
