<svg width="38" height="39" viewBox="0 0 38 39" fill="none" xmlns="http://www.w3.org/2000/svg">
<path fill-rule="evenodd" clip-rule="evenodd" d="M17.7057 1.03615C18.4206 0.321284 19.5794 0.321284 20.2943 1.03615L21.681 2.42286C22.6054 3.34733 23.9537 3.70889 25.2169 3.37022L27.1107 2.86313C28.0873 2.60135 29.0914 3.18075 29.3532 4.1574L29.8603 6.0512C30.1989 7.31434 31.1857 8.30104 32.4488 8.63971L34.3426 9.1468C35.3192 9.40858 35.8986 10.4127 35.6369 11.3893L35.1298 13.2831C34.7911 14.5463 35.1527 15.8946 36.0772 16.819L37.4638 18.2057C38.1787 18.9206 38.1787 20.0794 37.4638 20.7943L36.0772 22.181C35.1527 23.1054 34.7911 24.4537 35.1298 25.7169L35.6369 27.6107C35.8986 28.5873 35.3192 29.5914 34.3426 29.8532L32.4488 30.3603C31.1857 30.6989 30.1989 31.6857 29.8603 32.9488L29.3532 34.8426C29.0914 35.8192 28.0873 36.3986 27.1107 36.1369L25.2169 35.6298C23.9537 35.2911 22.6054 35.6527 21.681 36.5772L20.2943 37.9638C19.5794 38.6787 18.4206 38.6787 17.7057 37.9638L16.319 36.5772C15.3946 35.6527 14.0463 35.2911 12.7831 35.6298L10.8893 36.1369C9.9127 36.3986 8.90858 35.8192 8.6468 34.8426L8.13973 32.9488C7.80106 31.6857 6.81434 30.6989 5.5512 30.3603L3.6574 29.8532C2.68075 29.5914 2.10135 28.5873 2.36313 27.6107L2.87021 25.7169C3.20888 24.4537 2.84732 23.1054 1.92285 22.181L0.536149 20.7943C-0.178716 20.0794 -0.178716 18.9206 0.536149 18.2057L1.92285 16.819C2.84732 15.8946 3.20888 14.5463 2.87021 13.2831L2.36313 11.3893C2.10135 10.4127 2.68075 9.40858 3.6574 9.1468L5.5512 8.63971C6.81434 8.30104 7.80106 7.31434 8.13973 6.0512L8.6468 4.1574C8.90858 3.18075 9.9127 2.60135 10.8893 2.86313L12.7831 3.37022C14.0463 3.70889 15.3946 3.34733 16.319 2.42286L17.7057 1.03615ZM19 5.77019C11.4221 5.77019 5.27019 11.9221 5.27019 19.5C5.27019 27.0779 11.4221 33.2298 19 33.2298C26.5779 33.2298 32.7298 27.0779 32.7298 19.5C32.7298 11.9221 26.5779 5.77019 19 5.77019ZM19 7.60083C25.5674 7.60083 30.8992 12.9326 30.8992 19.5C30.8992 26.0674 25.5674 31.3992 19 31.3992C12.4326 31.3992 7.10083 26.0674 7.10083 19.5C7.10083 12.9326 12.4326 7.60083 19 7.60083ZM12.8609 20.1471L16.5222 23.8084C16.8792 24.1663 17.4595 24.1663 17.8165 23.8084L25.1391 16.4858C25.496 16.1289 25.496 15.5486 25.1391 15.1916C24.7821 14.8346 24.2018 14.8346 23.8448 15.1916L17.1694 21.867L14.1552 18.8529C13.7982 18.4959 13.2179 18.4959 12.8609 18.8529C12.504 19.2098 12.504 19.7902 12.8609 20.1471Z" fill="#8E8E8E"/>
</svg>
