<svg width="52" height="50" viewBox="0 0 52 50" fill="none" xmlns="http://www.w3.org/2000/svg">
<path d="M26.3832 0C40.4537 0 51.8601 11.1929 51.8601 25C51.8601 38.8071 40.4537 50 26.3832 50C12.3127 50 0.90625 38.8071 0.90625 25C0.90625 11.1929 12.3127 0 26.3832 0Z" fill="url(#paint0_linear_240_45)"/>
<path d="M27.172 19.7373C27.185 19.492 27.3982 19.3036 27.6481 19.3164C28.5831 19.3643 29.361 19.642 29.915 20.2041C30.4669 20.764 30.7375 21.5463 30.785 22.4858C30.7974 22.7311 30.6048 22.9397 30.3549 22.9519C30.1049 22.9641 29.8923 22.7751 29.8799 22.5299C29.8392 21.7256 29.6144 21.1782 29.2636 20.8223C28.915 20.4686 28.383 20.2445 27.6009 20.2044C27.351 20.1916 27.159 19.9825 27.172 19.7373Z" fill="white"/>
<path d="M26.9701 16.9309C26.7205 16.9129 26.5034 17.0969 26.4851 17.3418C26.4669 17.5868 26.6544 17.7998 26.904 17.8177C28.6292 17.9416 29.9248 18.5083 30.8517 19.501C31.7814 20.4978 32.2377 21.7405 32.2041 23.263C32.1987 23.5085 32.3971 23.7118 32.6473 23.7171C32.8975 23.7224 33.1047 23.5277 33.1101 23.2822C33.1482 21.5558 32.6237 20.0838 31.5202 18.9006L31.5201 18.9005C30.4045 17.7055 28.8729 17.0675 26.9701 16.9309Z" fill="white"/>
<path d="M25.6852 15.0647C25.687 14.8192 25.8912 14.6215 26.1415 14.6232C28.771 14.6412 30.9937 15.5002 32.7783 17.2073C34.5778 18.9287 35.4677 21.2722 35.4902 24.1827C35.4921 24.4283 35.2908 24.6289 35.0406 24.6307C34.7903 24.6326 34.5859 24.4351 34.584 24.1895C34.5629 21.4622 33.736 19.3653 32.1457 17.844C30.5404 16.3085 28.5473 15.5289 26.1352 15.5124C25.8849 15.5107 25.6835 15.3103 25.6852 15.0647Z" fill="white"/>
<path d="M28.6941 28.1013C28.3512 28.5158 27.7143 28.4631 27.7143 28.4631C23.059 27.2969 21.8131 22.6697 21.8131 22.6697C21.8131 22.6697 21.7572 22.0447 22.1818 21.7082L23.023 21.0521C23.4401 20.7367 23.7061 19.9714 23.2815 19.224C22.9558 18.663 22.6017 18.1184 22.2205 17.5921C21.8502 17.0958 20.9875 16.0794 20.9843 16.0763C20.5682 15.5947 19.9566 15.4829 19.3116 15.8126C19.3096 15.8126 19.3069 15.8134 19.3044 15.8142C19.302 15.815 19.2997 15.8157 19.2981 15.8157C18.6566 16.1784 18.0782 16.6392 17.5846 17.1807C17.5829 17.184 17.5812 17.1856 17.5795 17.1872C17.578 17.1886 17.5765 17.1901 17.5749 17.1929C17.1764 17.6647 16.9484 18.1273 16.8907 18.5805C16.8787 18.6474 16.8746 18.7153 16.8783 18.7831C16.8762 18.9832 16.9072 19.1824 16.9702 19.3728L16.9923 19.3875C17.1933 20.088 17.6964 21.2546 18.7897 23.1998C19.415 24.3249 20.1362 25.3961 20.9456 26.4019C21.3511 26.9061 21.7857 27.387 22.2474 27.8423C22.2529 27.8478 22.2584 27.8532 22.2639 27.8586C22.2748 27.8695 22.2857 27.8803 22.2968 27.8908L22.4452 28.0364C22.9092 28.4894 23.3993 28.9159 23.9131 29.3139C24.9382 30.1082 26.03 30.8159 27.1768 31.4294C29.1585 32.5022 30.3485 32.9959 31.0613 33.1931L31.0763 33.2148C31.2703 33.2768 31.4732 33.3074 31.6772 33.3055C31.7463 33.3088 31.8155 33.3045 31.8836 33.2928C32.3462 33.239 32.8173 33.0156 33.2967 32.6225C33.3026 32.6193 33.3026 32.6161 33.3091 32.613C33.8609 32.1285 34.3307 31.5609 34.7007 30.9315C34.7007 30.9302 34.7011 30.9284 34.7016 30.9265C34.7024 30.9236 34.7033 30.9205 34.7033 30.9183C35.0393 30.2854 34.9253 29.6852 34.4319 29.2764C34.4313 29.2764 34.391 29.2439 34.3229 29.1888C34.0433 28.9627 33.2939 28.3568 32.8871 28.0633C32.3514 27.6893 31.7969 27.3418 31.2257 27.0221C30.4636 26.6055 29.6853 26.8666 29.3628 27.2758L28.6941 28.1013Z" fill="white"/>
<path fill-rule="evenodd" clip-rule="evenodd" d="M39.5333 11.7603C38.6432 10.9544 35.0463 8.39207 27.0343 8.35726C27.0343 8.35726 17.5862 7.79818 12.9804 11.9438C10.4165 14.4602 9.5146 18.1422 9.41946 22.7072C9.32433 27.2722 9.20124 35.8272 17.605 38.1468H17.6131L17.6077 41.6864C17.6077 41.6864 17.5539 43.1195 18.5155 43.4117C19.4862 43.7075 20.1223 42.9978 20.9516 42.0725C21.116 41.889 21.2881 41.6971 21.4718 41.5029C22.0813 40.8584 22.923 39.9116 23.5573 39.188C29.3047 39.6627 33.7251 38.5777 34.2271 38.4174C34.3307 38.3844 34.4773 38.3478 34.6593 38.3024L34.6594 38.3024C36.5163 37.8391 42.0495 36.4585 43.0222 28.6683C44.1246 19.8511 42.489 14.274 39.5333 11.7603ZM40.5072 28.0359C39.6956 34.4671 35.2968 35.4715 33.7118 35.8334L33.7117 35.8334L33.7115 35.8334C33.5363 35.8734 33.3955 35.9056 33.2978 35.9363C32.8802 36.0682 28.9978 37.016 24.1157 36.7032C24.1157 36.7032 20.4779 41.0097 19.3417 42.1295C19.1643 42.3046 18.9557 42.3753 18.8165 42.3405C18.6209 42.2935 18.5671 42.0662 18.5693 41.7339C18.5725 41.2592 18.6005 35.8519 18.6005 35.8519C11.7264 33.9792 11.8868 27.1093 11.9777 23.2102L11.9778 23.2099C11.9809 23.0767 11.9839 22.947 11.9866 22.8211C12.0672 19.0083 12.7971 15.8848 14.9654 13.784C18.8611 10.3214 26.8865 10.8388 26.8865 10.8388C33.6638 10.8679 36.9114 12.8705 37.6644 13.5414C40.1649 15.6422 41.4387 20.6692 40.5072 28.0338V28.0359Z" fill="white"/>
<defs>
<linearGradient id="paint0_linear_240_45" x1="26.3832" y1="50" x2="26.3832" y2="0" gradientUnits="userSpaceOnUse">
<stop stop-color="#7360F2"/>
<stop offset="1" stop-color="#5749B5"/>
</linearGradient>
</defs>
</svg>
