<svg width="52" height="50" viewBox="0 0 52 50" fill="none" xmlns="http://www.w3.org/2000/svg">
<rect x="0.953125" width="50.9538" height="50" rx="25" fill="url(#paint0_linear_240_42)"/>
<path d="M36.5274 15.0781C34.0108 12.6172 30.6553 11.25 27.1134 11.25C19.7499 11.25 13.7846 17.0833 13.7846 24.2839C13.7846 26.5625 14.4371 28.8411 15.5556 30.7552L13.6914 37.5L20.7752 35.6771C22.7326 36.6797 24.8764 37.2266 27.1134 37.2266C34.4768 37.2266 40.4422 31.3932 40.4422 24.1927C40.349 20.8203 39.0441 17.5391 36.5274 15.0781ZM33.5448 28.9323C33.2651 29.6615 31.9602 30.3906 31.3078 30.4818C30.7485 30.5729 30.0029 30.5729 29.2572 30.3906C28.7911 30.2083 28.1387 30.026 27.393 29.6615C24.0375 28.2943 21.8937 25.013 21.7073 24.7396C21.5209 24.5573 20.3092 23.0078 20.3092 21.3672C20.3092 19.7266 21.1481 18.9974 21.4277 18.6328C21.7073 18.2682 22.0801 18.2682 22.3598 18.2682C22.5462 18.2682 22.8258 18.2682 23.0122 18.2682C23.1986 18.2682 23.4783 18.1771 23.7579 18.8151C24.0375 19.4531 24.69 21.0938 24.7832 21.1849C24.8764 21.3672 24.8764 21.5495 24.7832 21.7318C24.69 21.9141 24.5968 22.0964 24.4104 22.2786C24.2239 22.4609 24.0375 22.7344 23.9443 22.8255C23.7579 23.0078 23.5715 23.1901 23.7579 23.4635C23.9443 23.8281 24.5968 24.8307 25.6221 25.7422C26.927 26.8359 27.9523 27.2005 28.3251 27.3828C28.6979 27.5651 28.8843 27.474 29.0708 27.2917C29.2572 27.1094 29.9096 26.3802 30.0961 26.0156C30.2825 25.651 30.5621 25.7422 30.8417 25.8333C31.1213 25.9245 32.7991 26.7448 33.0787 26.9271C33.4516 27.1094 33.638 27.2005 33.7312 27.2917C33.8244 27.5651 33.8244 28.2031 33.5448 28.9323Z" fill="white"/>
<defs>
<linearGradient id="paint0_linear_240_42" x1="26.43" y1="0" x2="26.43" y2="50" gradientUnits="userSpaceOnUse">
<stop stop-color="#48C95F"/>
<stop offset="1" stop-color="#1EBB3A"/>
</linearGradient>
</defs>
</svg>
