<svg width="175" height="68" viewBox="0 0 175 68" fill="none" xmlns="http://www.w3.org/2000/svg">
<path fill-rule="evenodd" clip-rule="evenodd" d="M40.0628 0L9.33789 52.1292H24.6472L55.372 0H40.0628Z" fill="url(#paint0_linear_240_56)"/>
<path fill-rule="evenodd" clip-rule="evenodd" d="M67.4919 37.5703V52.128H9.33789L17.9494 37.5703H67.4919Z" fill="url(#paint1_linear_240_56)"/>
<path fill-rule="evenodd" clip-rule="evenodd" d="M52.0742 21.8359H67.4898V67.9708H52.0742V21.8359Z" fill="url(#paint2_linear_240_56)"/>
<path fill-rule="evenodd" clip-rule="evenodd" d="M57.2837 0L52.0742 8.77743V20.2308H67.4898V0H57.2837Z" fill="url(#paint3_linear_240_56)"/>
<path d="M8.71173 53.125H24.6251L15.7972 68.0011H0L8.71173 53.125Z" fill="url(#paint4_linear_240_56)"/>
<path d="M87.5511 30.7141C87.4064 30.2499 87.2414 29.7727 87.0572 29.2827C86.8857 28.7927 86.7149 28.3027 86.5434 27.8127H81.2086C81.0372 28.3027 80.8593 28.7927 80.6751 29.2827C80.5037 29.7727 80.3456 30.2499 80.2009 30.7141H77C77.5137 29.2698 78.0013 27.9351 78.4621 26.7101C78.923 25.4851 79.371 24.3309 79.8057 23.2477C80.2538 22.1645 80.6885 21.1394 81.1098 20.1722C81.5445 19.1922 81.9926 18.2379 82.4534 17.3095H85.3974C85.8455 18.2379 86.2866 19.1922 86.7213 20.1722C87.156 21.1394 87.5907 22.1645 88.0253 23.2477C88.4734 24.3309 88.9279 25.4851 89.3887 26.7101C89.8495 27.9351 90.3371 29.2698 90.8508 30.7141H87.5511ZM83.8563 20.3463C83.7906 20.5397 83.6918 20.8041 83.5599 21.1394C83.428 21.4746 83.2769 21.8615 83.1054 22.2999C82.934 22.7384 82.7434 23.222 82.5324 23.7507C82.3348 24.2793 82.1309 24.8339 81.9199 25.4141H85.8124C85.6014 24.8339 85.3974 24.2793 85.1999 23.7507C85.0023 23.222 84.8111 22.7384 84.6269 22.2999C84.4554 21.8615 84.3043 21.4746 84.1724 21.1394C84.0405 20.8041 83.9353 20.5397 83.8563 20.3463ZM100.882 17.3095H103.965V30.7141H100.882V25.0273H95.7057V30.7141H92.6233V17.3095H95.7057V22.4353H100.882V17.3095ZM117.29 17.3095V19.8821H113.16V30.7141H110.078V19.8821H105.948V17.3095H117.29ZM121.396 24.0021C121.396 24.6598 121.475 25.253 121.633 25.7817C121.804 26.3103 122.041 26.7681 122.344 27.155C122.661 27.5289 123.042 27.8191 123.49 28.0254C123.938 28.2318 124.452 28.3349 125.032 28.3349C125.598 28.3349 126.105 28.2318 126.553 28.0254C127.014 27.8191 127.396 27.5289 127.699 27.155C128.015 26.7681 128.252 26.3103 128.41 25.7817C128.581 25.253 128.667 24.6598 128.667 24.0021C128.667 23.3445 128.581 22.7513 128.41 22.2226C128.252 21.681 128.015 21.2232 127.699 20.8492C127.396 20.4624 127.014 20.1658 126.553 19.9595C126.105 19.7531 125.598 19.65 125.032 19.65C124.452 19.65 123.938 19.7596 123.49 19.9788C123.042 20.1851 122.661 20.4817 122.344 20.8686C122.041 21.2425 121.804 21.7003 121.633 22.2419C121.475 22.7706 121.396 23.3574 121.396 24.0021ZM131.848 24.0021C131.848 25.1498 131.671 26.1621 131.315 27.0389C130.972 27.9029 130.498 28.6315 129.892 29.2247C129.286 29.805 128.561 30.2434 127.719 30.54C126.889 30.8366 125.993 30.9849 125.032 30.9849C124.096 30.9849 123.214 30.8366 122.384 30.54C121.554 30.2434 120.829 29.805 120.21 29.2247C119.591 28.6315 119.104 27.9029 118.748 27.0389C118.393 26.1621 118.215 25.1498 118.215 24.0021C118.215 22.8545 118.399 21.8486 118.768 20.9846C119.137 20.1078 119.631 19.3727 120.25 18.7795C120.882 18.1864 121.606 17.7415 122.423 17.4449C123.253 17.1483 124.123 17 125.032 17C125.967 17 126.849 17.1483 127.679 17.4449C128.509 17.7415 129.233 18.1864 129.853 18.7795C130.472 19.3727 130.959 20.1078 131.315 20.9846C131.671 21.8486 131.848 22.8545 131.848 24.0021ZM142.677 17.3095H145.759V30.7141H142.677V25.0273H137.5V30.7141H134.418V17.3095H137.5V22.4353H142.677V17.3095Z" fill="#2254B2"/>
<path d="M80.7934 41.5757C80.7934 42.1044 80.8593 42.5365 80.9915 42.8717C81.1238 43.1941 81.3085 43.452 81.5462 43.6454C81.7973 43.8389 82.0945 43.9743 82.4376 44.0516C82.7808 44.1161 83.1572 44.1483 83.5668 44.1483C83.8837 44.1483 84.2205 44.1354 84.5771 44.1097C84.9471 44.0839 85.3234 44.0452 85.7062 43.9936V37.6298H88.7965V51.0344H85.7062V46.5469C85.257 46.5985 84.8212 46.6371 84.3988 46.6629C83.9764 46.6887 83.5732 46.7016 83.1904 46.7016C82.3584 46.7016 81.5992 46.6307 80.9123 46.4888C80.2388 46.3341 79.6643 46.0697 79.1889 45.6958C78.7134 45.3089 78.3434 44.7996 78.0795 44.1677C77.8284 43.5229 77.7031 42.7105 77.7031 41.7305V37.6298H80.7934V41.5757ZM101.151 51.0344C101.006 50.5702 100.841 50.093 100.656 49.603C100.485 49.113 100.313 48.623 100.141 48.133H94.7924C94.6212 48.623 94.4429 49.113 94.2576 49.603C94.0863 50.093 93.9278 50.5702 93.7822 51.0344H90.573C91.088 49.5901 91.5769 48.2555 92.0389 47.0304C92.5015 45.8054 92.9501 44.6513 93.386 43.5681C93.8352 42.4849 94.271 41.4597 94.6934 40.4925C95.1292 39.5125 95.5784 38.5583 96.0405 37.6298H98.9921C99.4413 38.5583 99.8835 39.5125 100.319 40.4925C100.755 41.4597 101.191 42.4849 101.627 43.5681C102.076 44.6513 102.532 45.8054 102.994 47.0304C103.456 48.2555 103.945 49.5901 104.46 51.0344H101.151ZM97.4469 40.6666C97.3811 40.8601 97.2821 41.1244 97.1498 41.4597C97.0181 41.7949 96.8661 42.1818 96.6942 42.6203C96.5229 43.0587 96.3312 43.5423 96.1197 44.071C95.9216 44.5997 95.7171 45.1542 95.5056 45.7345H99.4081C99.1972 45.1542 98.9921 44.5997 98.794 44.071C98.5959 43.5423 98.4048 43.0587 98.2195 42.6203C98.0482 42.1818 97.8962 41.7949 97.7639 41.4597C97.6322 41.1244 97.5262 40.8601 97.4469 40.6666ZM109.188 40.1831V42.3881H110.199C111.216 42.3881 112.12 42.4655 112.912 42.6203C113.718 42.775 114.392 43.0265 114.933 43.3746C115.488 43.7228 115.911 44.1741 116.201 44.7286C116.492 45.2831 116.637 45.9601 116.637 46.7596C116.637 48.2426 116.082 49.3516 114.973 50.0866C113.877 50.8087 112.305 51.1698 110.258 51.1698C109.703 51.1698 109.069 51.1375 108.356 51.0731C107.656 51.0086 106.95 50.8926 106.237 50.7249V37.6298H115.349V40.1831H109.188ZM110.416 48.5972C110.826 48.5972 111.216 48.5714 111.585 48.5198C111.955 48.4682 112.279 48.378 112.556 48.249C112.847 48.1072 113.078 47.9202 113.249 47.6881C113.421 47.456 113.507 47.1529 113.507 46.779C113.507 46.3921 113.428 46.0762 113.269 45.8312C113.111 45.5861 112.886 45.3927 112.596 45.2509C112.305 45.1091 111.949 45.0123 111.526 44.9607C111.103 44.9091 110.628 44.8834 110.099 44.8834H109.188V48.5585C109.334 48.5714 109.505 48.5843 109.703 48.5972C109.915 48.5972 110.153 48.5972 110.416 48.5972ZM128.313 51.0344C128.167 50.5702 128.002 50.093 127.817 49.603C127.646 49.113 127.474 48.623 127.302 48.133H121.954C121.782 48.623 121.604 49.113 121.419 49.603C121.247 50.093 121.089 50.5702 120.944 51.0344H117.734C118.249 49.5901 118.738 48.2555 119.2 47.0304C119.662 45.8054 120.112 44.6513 120.547 43.5681C120.996 42.4849 121.432 41.4597 121.855 40.4925C122.291 39.5125 122.739 38.5583 123.202 37.6298H126.153C126.602 38.5583 127.045 39.5125 127.481 40.4925C127.917 41.4597 128.352 42.4849 128.788 43.5681C129.237 44.6513 129.692 45.8054 130.155 47.0304C130.617 48.2555 131.106 49.5901 131.621 51.0344H128.313ZM124.608 40.6666C124.542 40.8601 124.443 41.1244 124.311 41.4597C124.179 41.7949 124.027 42.1818 123.856 42.6203C123.684 43.0587 123.492 43.5423 123.281 44.071C123.083 44.5997 122.878 45.1542 122.667 45.7345H126.569C126.358 45.1542 126.153 44.5997 125.955 44.071C125.757 43.5423 125.566 43.0587 125.381 42.6203C125.209 42.1818 125.057 41.7949 124.925 41.4597C124.793 41.1244 124.688 40.8601 124.608 40.6666ZM141.678 37.6298H144.768V51.0344H141.678V45.3476H136.488V51.0344H133.397V37.6298H136.488V42.7557H141.678V37.6298ZM150.54 44.3224C150.54 44.9801 150.62 45.5733 150.778 46.102C150.95 46.6307 151.188 47.0885 151.491 47.4753C151.808 47.8493 152.192 48.1394 152.64 48.3457C153.089 48.5521 153.604 48.6552 154.185 48.6552C154.753 48.6552 155.262 48.5521 155.711 48.3457C156.173 48.1394 156.556 47.8493 156.86 47.4753C157.177 47.0885 157.414 46.6307 157.573 46.102C157.745 45.5733 157.83 44.9801 157.83 44.3224C157.83 43.6648 157.745 43.0716 157.573 42.5429C157.414 42.0013 157.177 41.5435 156.86 41.1695C156.556 40.7827 156.173 40.4861 155.711 40.2798C155.262 40.0734 154.753 39.9703 154.185 39.9703C153.604 39.9703 153.089 40.0799 152.64 40.2991C152.192 40.5055 151.808 40.802 151.491 41.1889C151.188 41.5628 150.95 42.0206 150.778 42.5622C150.62 43.0909 150.54 43.6777 150.54 44.3224ZM161.02 44.3224C161.02 45.4701 160.841 46.4824 160.485 47.3593C160.142 48.2233 159.666 48.9518 159.058 49.545C158.451 50.1253 157.725 50.5637 156.879 50.8603C156.047 51.1569 155.15 51.3052 154.185 51.3052C153.248 51.3052 152.363 51.1569 151.531 50.8603C150.699 50.5637 149.973 50.1253 149.352 49.545C148.731 48.9518 148.242 48.2233 147.886 47.3593C147.529 46.4824 147.351 45.4701 147.351 44.3224C147.351 43.1748 147.536 42.1689 147.906 41.3049C148.276 40.4281 148.771 39.6931 149.391 39.0999C150.025 38.5067 150.752 38.0618 151.57 37.7652C152.402 37.4686 153.274 37.3203 154.185 37.3203C155.123 37.3203 156.008 37.4686 156.84 37.7652C157.672 38.0618 158.398 38.5067 159.019 39.0999C159.64 39.6931 160.128 40.4281 160.485 41.3049C160.841 42.1689 161.02 43.1748 161.02 44.3224ZM168.172 51.2085C167.419 51.2085 166.667 51.1827 165.914 51.1311C165.174 51.0924 164.401 50.9893 163.596 50.8216V37.8232C164.23 37.7072 164.923 37.6234 165.676 37.5718C166.429 37.5073 167.129 37.4751 167.776 37.4751C168.648 37.4751 169.446 37.5395 170.173 37.6685C170.912 37.7845 171.546 37.9909 172.075 38.2875C172.602 38.584 173.012 38.9774 173.303 39.4674C173.606 39.9445 173.758 40.5377 173.758 41.2469C173.758 42.3172 173.23 43.1619 172.174 43.7808C173.045 44.1032 173.64 44.5416 173.957 45.0961C174.273 45.6507 174.432 46.2761 174.432 46.9724C174.432 48.378 173.903 49.4354 172.847 50.1446C171.804 50.8539 170.245 51.2085 168.172 51.2085ZM166.607 45.1929V48.6552C166.831 48.681 167.076 48.7003 167.34 48.7133C167.604 48.7262 167.895 48.7326 168.212 48.7326C169.136 48.7326 169.882 48.6036 170.45 48.3457C171.018 48.0879 171.302 47.6107 171.302 46.9144C171.302 46.2954 171.064 45.8569 170.589 45.5991C170.113 45.3283 169.433 45.1929 168.548 45.1929H166.607ZM166.607 42.8911H168.113C169.064 42.8911 169.743 42.775 170.153 42.5429C170.562 42.2979 170.767 41.911 170.767 41.3823C170.767 40.8407 170.556 40.4603 170.133 40.2411C169.71 40.0219 169.09 39.9123 168.271 39.9123C168.007 39.9123 167.723 39.9187 167.419 39.9316C167.115 39.9316 166.845 39.9445 166.607 39.9703V42.8911Z" fill="#2254B2"/>
<defs>
<linearGradient id="paint0_linear_240_56" x1="45.0726" y1="4.96611" x2="19.3553" y2="47.0133" gradientUnits="userSpaceOnUse">
<stop stop-color="#4778D4"/>
<stop offset="0.0392157" stop-color="#4778D4"/>
<stop offset="1" stop-color="#0C3584"/>
</linearGradient>
<linearGradient id="paint1_linear_240_56" x1="28.8071" y1="31.365" x2="48.1457" y2="58.1387" gradientUnits="userSpaceOnUse">
<stop stop-color="#4778D4"/>
<stop offset="0.0392157" stop-color="#4778D4"/>
<stop offset="1" stop-color="#0B3583"/>
</linearGradient>
<linearGradient id="paint2_linear_240_56" x1="59.1545" y1="22.1308" x2="60.4645" y2="67.6701" gradientUnits="userSpaceOnUse">
<stop stop-color="#4778D4"/>
<stop offset="0.0392157" stop-color="#4778D4"/>
<stop offset="1" stop-color="#1749A8"/>
</linearGradient>
<linearGradient id="paint3_linear_240_56" x1="64.0408" y1="1.92729" x2="53.4622" y2="16.8514" gradientUnits="userSpaceOnUse">
<stop stop-color="#BFBFC0"/>
<stop offset="0.0392157" stop-color="#C5C5C6"/>
<stop offset="1" stop-color="#E3E3E4"/>
</linearGradient>
<linearGradient id="paint4_linear_240_56" x1="19.1156" y1="54.5422" x2="14.2535" y2="69.4438" gradientUnits="userSpaceOnUse">
<stop stop-color="#BFBFC0"/>
<stop offset="0.0392157" stop-color="#C5C5C6"/>
<stop offset="1" stop-color="#E3E3E4"/>
</linearGradient>
</defs>
</svg>
